# xmcd
#
# Track frame offsets: 
#        150
#        24181
#        44566
#        66084
#        82590
#        102818
#        125785
#        130514
#        149053
#        169295
#        189793
#        210694
#        214259
#
# Disc length: 3212 seconds
#
# Revision: 0
# Processed by: cddbd v1.5.2PL0 Copyright (c) Steve Scherf et al.
# Submitted via: ExactAudioCopyFreeDBPlugin 1.0
#
DISCID=b60c8a0d
DTITLE=Mint Condition - Music @ The Speed Of Life
DYEAR=2012
DGENRE=R&B
TTITLE0=In the Moment
TTITLE1=Believe In Us
TTITLE2=What I Gotta Do
TTITLE3=Blessed
TTITLE4=Slo Woman
TTITLE5=Girl of My Life
TTITLE6=Believe In Us (Reprise)
TTITLE7=Completely
TTITLE8=Never Hurt Again
TTITLE9=Nothin'
TTITLE10=Be Where You Are
TTITLE11=Never Hurt Again (Reprise)
TTITLE12=SixFortyNine-Changes
EXTD=
EXTT0=
EXTT1=
EXTT2=
EXTT3=
EXTT4=
EXTT5=
EXTT6=
EXTT7=
EXTT8=
EXTT9=
EXTT10=
EXTT11=
EXTT12=
PLAYORDER=
